<?xml version="1.0" encoding="UTF-8" standalone="no"?>
<!DOCTYPE svg PUBLIC "-//W3C//DTD SVG 1.1//EN"
 "http://www.w3.org/Graphics/SVG/1.1/DTD/svg11.dtd">
<!-- Generated by graphviz version 2.43.0 (0)
 -->
<!-- Title: gomodgraph Pages: 1 -->
<svg width="485pt" height="908pt"
 viewBox="0.00 0.00 485.00 908.00" xmlns="http://www.w3.org/2000/svg" xmlns:xlink="http://www.w3.org/1999/xlink">
<g id="graph0" class="graph" transform="scale(1 1) rotate(0) translate(4 904)">
<title>gomodgraph</title>
<polygon fill="white" stroke="transparent" points="-4,4 -4,-904 481,-904 481,4 -4,4"/>
<!-- github.com/ory/hydra/v2 -->
<g id="node1" class="node">
<title>github.com/ory/hydra/v2</title>
<polygon fill="none" stroke="black" points="340,-900 175,-900 175,-864 340,-864 340,-900"/>
<text text-anchor="middle" x="257.5" y="-878.9" font-family="Times,serif" font-size="12.00">github.com/ory/hydra/v2</text>
</g>
<!-- github.com/ory/x@v0.0.574 -->
<g id="node2" class="node">
<title>github.com/ory/x@v0.0.574</title>
<polygon fill="green" stroke="black" points="348.5,-828 166.5,-828 166.5,-792 348.5,-792 348.5,-828"/>
<text text-anchor="middle" x="257.5" y="-806.9" font-family="Times,serif" font-size="12.00">github.com/ory/x@v0.0.574</text>
</g>
<!-- github.com/ory/hydra/v2&#45;&gt;github.com/ory/x@v0.0.574 -->
<g id="edge1" class="edge">
<title>github.com/ory/hydra/v2&#45;&gt;github.com/ory/x@v0.0.574</title>
<path fill="none" stroke="black" d="M257.5,-863.7C257.5,-855.98 257.5,-846.71 257.5,-838.11"/>
<polygon fill="black" stroke="black" points="261,-838.1 257.5,-828.1 254,-838.1 261,-838.1"/>
</g>
<!-- github.com/prometheus/client_golang@v1.13.0 -->
<g id="node3" class="node">
<title>github.com/prometheus/client_golang@v1.13.0</title>
<polygon fill="green" stroke="black" points="299,-756 0,-756 0,-720 299,-720 299,-756"/>
<text text-anchor="middle" x="149.5" y="-734.9" font-family="Times,serif" font-size="12.00">github.com/prometheus/client_golang@v1.13.0</text>
</g>
<!-- github.com/ory/hydra/v2&#45;&gt;github.com/prometheus/client_golang@v1.13.0 -->
<g id="edge2" class="edge">
<title>github.com/ory/hydra/v2&#45;&gt;github.com/prometheus/client_golang@v1.13.0</title>
<path fill="none" stroke="black" d="M202.95,-863.93C185.66,-855.8 168.27,-844.2 157.5,-828 145.53,-809.99 144.22,-785.2 145.52,-766.36"/>
<polygon fill="black" stroke="black" points="149.01,-766.6 146.49,-756.31 142.04,-765.93 149.01,-766.6"/>
</g>
<!-- github.com/prometheus/common@v0.37.0 -->
<g id="node4" class="node">
<title>github.com/prometheus/common@v0.37.0</title>
<polygon fill="green" stroke="black" points="463,-684 192,-684 192,-648 463,-648 463,-684"/>
<text text-anchor="middle" x="327.5" y="-662.9" font-family="Times,serif" font-size="12.00">github.com/prometheus/common@v0.37.0</text>
</g>
<!-- github.com/ory/hydra/v2&#45;&gt;github.com/prometheus/common@v0.37.0 -->
<g id="edge3" class="edge">
<title>github.com/ory/hydra/v2&#45;&gt;github.com/prometheus/common@v0.37.0</title>
<path fill="none" stroke="black" d="M313.94,-863.96C330.94,-855.89 347.67,-844.33 357.5,-828 382.85,-785.87 360.26,-727.19 342.93,-693.55"/>
<polygon fill="black" stroke="black" points="345.82,-691.52 338.01,-684.36 339.65,-694.82 345.82,-691.52"/>
</g>
<!-- github.com/ory/x@v0.0.574&#45;&gt;github.com/prometheus/client_golang@v1.13.0 -->
<g id="edge4" class="edge">
<title>github.com/ory/x@v0.0.574&#45;&gt;github.com/prometheus/client_golang@v1.13.0</title>
<path fill="none" stroke="black" d="M231.08,-791.88C217.09,-782.81 199.72,-771.55 184.61,-761.76"/>
<polygon fill="black" stroke="black" points="186.32,-758.69 176.02,-756.19 182.51,-764.57 186.32,-758.69"/>
</g>
<!-- github.com/ory/x@v0.0.574&#45;&gt;github.com/prometheus/common@v0.37.0 -->
<g id="edge5" class="edge">
<title>github.com/ory/x@v0.0.574&#45;&gt;github.com/prometheus/common@v0.37.0</title>
<path fill="none" stroke="black" d="M278.3,-791.84C288.56,-782.3 300.26,-769.63 307.5,-756 317.69,-736.83 322.7,-712.67 325.16,-694.36"/>
<polygon fill="black" stroke="black" points="328.65,-694.68 326.33,-684.34 321.69,-693.86 328.65,-694.68"/>
</g>
<!-- github.com/prometheus/client_golang@v1.13.0&#45;&gt;github.com/prometheus/common@v0.37.0 -->
<g id="edge6" class="edge">
<title>github.com/prometheus/client_golang@v1.13.0&#45;&gt;github.com/prometheus/common@v0.37.0</title>
<path fill="none" stroke="black" d="M193.04,-719.88C217.7,-710.18 248.72,-697.98 274.75,-687.74"/>
<polygon fill="black" stroke="black" points="276.07,-690.99 284.1,-684.07 273.51,-684.47 276.07,-690.99"/>
</g>
<!-- github.com/prometheus/client_golang@v1.12.1 -->
<g id="node5" class="node">
<title>github.com/prometheus/client_golang@v1.12.1</title>
<polygon fill="gray" stroke="black" points="477,-612 178,-612 178,-576 477,-576 477,-612"/>
<text text-anchor="middle" x="327.5" y="-590.9" font-family="Times,serif" font-size="12.00">github.com/prometheus/client_golang@v1.12.1</text>
</g>
<!-- github.com/prometheus/common@v0.37.0&#45;&gt;github.com/prometheus/client_golang@v1.12.1 -->
<g id="edge7" class="edge">
<title>github.com/prometheus/common@v0.37.0&#45;&gt;github.com/prometheus/client_golang@v1.12.1</title>
<path fill="none" stroke="black" d="M327.5,-647.7C327.5,-639.98 327.5,-630.71 327.5,-622.11"/>
<polygon fill="black" stroke="black" points="331,-622.1 327.5,-612.1 324,-622.1 331,-622.1"/>
</g>
<!-- github.com/prometheus/common@v0.32.1 -->
<g id="node6" class="node">
<title>github.com/prometheus/common@v0.32.1</title>
<polygon fill="gray" stroke="black" points="463,-540 192,-540 192,-504 463,-504 463,-540"/>
<text text-anchor="middle" x="327.5" y="-518.9" font-family="Times,serif" font-size="12.00">github.com/prometheus/common@v0.32.1</text>
</g>
<!-- github.com/prometheus/client_golang@v1.12.1&#45;&gt;github.com/prometheus/common@v0.32.1 -->
<g id="edge8" class="edge">
<title>github.com/prometheus/client_golang@v1.12.1&#45;&gt;github.com/prometheus/common@v0.32.1</title>
<path fill="none" stroke="black" d="M327.5,-575.7C327.5,-567.98 327.5,-558.71 327.5,-550.11"/>
<polygon fill="black" stroke="black" points="331,-550.1 327.5,-540.1 324,-550.1 331,-550.1"/>
</g>
<!-- github.com/prometheus/client_golang@v1.11.0 -->
<g id="node7" class="node">
<title>github.com/prometheus/client_golang@v1.11.0</title>
<polygon fill="gray" stroke="black" points="477,-468 178,-468 178,-432 477,-432 477,-468"/>
<text text-anchor="middle" x="327.5" y="-446.9" font-family="Times,serif" font-size="12.00">github.com/prometheus/client_golang@v1.11.0</text>
</g>
<!-- github.com/prometheus/common@v0.32.1&#45;&gt;github.com/prometheus/client_golang@v1.11.0 -->
<g id="edge9" class="edge">
<title>github.com/prometheus/common@v0.32.1&#45;&gt;github.com/prometheus/client_golang@v1.11.0</title>
<path fill="none" stroke="black" d="M327.5,-503.7C327.5,-495.98 327.5,-486.71 327.5,-478.11"/>
<polygon fill="black" stroke="black" points="331,-478.1 327.5,-468.1 324,-478.1 331,-478.1"/>
</g>
<!-- github.com/prometheus/common@v0.26.0 -->
<g id="node8" class="node">
<title>github.com/prometheus/common@v0.26.0</title>
<polygon fill="gray" stroke="black" points="463,-396 192,-396 192,-360 463,-360 463,-396"/>
<text text-anchor="middle" x="327.5" y="-374.9" font-family="Times,serif" font-size="12.00">github.com/prometheus/common@v0.26.0</text>
</g>
<!-- github.com/prometheus/client_golang@v1.11.0&#45;&gt;github.com/prometheus/common@v0.26.0 -->
<g id="edge10" class="edge">
<title>github.com/prometheus/client_golang@v1.11.0&#45;&gt;github.com/prometheus/common@v0.26.0</title>
<path fill="none" stroke="black" d="M327.5,-431.7C327.5,-423.98 327.5,-414.71 327.5,-406.11"/>
<polygon fill="black" stroke="black" points="331,-406.1 327.5,-396.1 324,-406.1 331,-406.1"/>
</g>
<!-- github.com/prometheus/client_golang@v1.7.1 -->
<g id="node9" class="node">
<title>github.com/prometheus/client_golang@v1.7.1</title>
<polygon fill="gray" stroke="black" points="473.5,-324 181.5,-324 181.5,-288 473.5,-288 473.5,-324"/>
<text text-anchor="middle" x="327.5" y="-302.9" font-family="Times,serif" font-size="12.00">github.com/prometheus/client_golang@v1.7.1</text>
</g>
<!-- github.com/prometheus/common@v0.26.0&#45;&gt;github.com/prometheus/client_golang@v1.7.1 -->
<g id="edge11" class="edge">
<title>github.com/prometheus/common@v0.26.0&#45;&gt;github.com/prometheus/client_golang@v1.7.1</title>
<path fill="none" stroke="black" d="M327.5,-359.7C327.5,-351.98 327.5,-342.71 327.5,-334.11"/>
<polygon fill="black" stroke="black" points="331,-334.1 327.5,-324.1 324,-334.1 331,-334.1"/>
</g>
<!-- github.com/prometheus/common@v0.10.0 -->
<g id="node10" class="node">
<title>github.com/prometheus/common@v0.10.0</title>
<polygon fill="gray" stroke="black" points="463,-252 192,-252 192,-216 463,-216 463,-252"/>
<text text-anchor="middle" x="327.5" y="-230.9" font-family="Times,serif" font-size="12.00">github.com/prometheus/common@v0.10.0</text>
</g>
<!-- github.com/prometheus/client_golang@v1.7.1&#45;&gt;github.com/prometheus/common@v0.10.0 -->
<g id="edge12" class="edge">
<title>github.com/prometheus/client_golang@v1.7.1&#45;&gt;github.com/prometheus/common@v0.10.0</title>
<path fill="none" stroke="black" d="M327.5,-287.7C327.5,-279.98 327.5,-270.71 327.5,-262.11"/>
<polygon fill="black" stroke="black" points="331,-262.1 327.5,-252.1 324,-262.1 331,-262.1"/>
</g>
<!-- github.com/prometheus/client_golang@v1.0.0 -->
<g id="node11" class="node">
<title>github.com/prometheus/client_golang@v1.0.0</title>
<polygon fill="gray" stroke="black" points="473.5,-180 181.5,-180 181.5,-144 473.5,-144 473.5,-180"/>
<text text-anchor="middle" x="327.5" y="-158.9" font-family="Times,serif" font-size="12.00">github.com/prometheus/client_golang@v1.0.0</text>
</g>
<!-- github.com/prometheus/common@v0.10.0&#45;&gt;github.com/prometheus/client_golang@v1.0.0 -->
<g id="edge13" class="edge">
<title>github.com/prometheus/common@v0.10.0&#45;&gt;github.com/prometheus/client_golang@v1.0.0</title>
<path fill="none" stroke="black" d="M327.5,-215.7C327.5,-207.98 327.5,-198.71 327.5,-190.11"/>
<polygon fill="black" stroke="black" points="331,-190.1 327.5,-180.1 324,-190.1 331,-190.1"/>
</g>
<!-- github.com/prometheus/common@v0.4.1 -->
<g id="node12" class="node">
<title>github.com/prometheus/common@v0.4.1</title>
<polygon fill="gray" stroke="black" points="459,-108 196,-108 196,-72 459,-72 459,-108"/>
<text text-anchor="middle" x="327.5" y="-86.9" font-family="Times,serif" font-size="12.00">github.com/prometheus/common@v0.4.1</text>
</g>
<!-- github.com/prometheus/client_golang@v1.0.0&#45;&gt;github.com/prometheus/common@v0.4.1 -->
<g id="edge14" class="edge">
<title>github.com/prometheus/client_golang@v1.0.0&#45;&gt;github.com/prometheus/common@v0.4.1</title>
<path fill="none" stroke="black" d="M327.5,-143.7C327.5,-135.98 327.5,-126.71 327.5,-118.11"/>
<polygon fill="black" stroke="black" points="331,-118.1 327.5,-108.1 324,-118.1 331,-118.1"/>
</g>
<!-- github.com/gogo/protobuf@v1.1.1 -->
<g id="node13" class="node">
<title>github.com/gogo/protobuf@v1.1.1</title>
<polygon fill="green" stroke="black" points="439,-36 216,-36 216,0 439,0 439,-36"/>
<text text-anchor="middle" x="327.5" y="-14.9" font-family="Times,serif" font-size="12.00">github.com/gogo/protobuf@v1.1.1</text>
</g>
<!-- github.com/prometheus/common@v0.4.1&#45;&gt;github.com/gogo/protobuf@v1.1.1 -->
<g id="edge15" class="edge">
<title>github.com/prometheus/common@v0.4.1&#45;&gt;github.com/gogo/protobuf@v1.1.1</title>
<path fill="none" stroke="black" d="M327.5,-71.7C327.5,-63.98 327.5,-54.71 327.5,-46.11"/>
<polygon fill="black" stroke="black" points="331,-46.1 327.5,-36.1 324,-46.1 331,-46.1"/>
</g>
</g>
</svg>
